<?xml version="1.0" standalone="no"?><!DOCTYPE svg PUBLIC "-//W3C//DTD SVG 1.1//EN" "http://www.w3.org/Graphics/SVG/1.1/DTD/svg11.dtd"><svg t="1777369867976" class="icon" viewBox="0 0 1024 1024" version="1.1" xmlns="http://www.w3.org/2000/svg" p-id="6024" xmlns:xlink="http://www.w3.org/1999/xlink" width="200" height="200"><path d="M667.574788 660.831609l-143.774224 60.929445c-16.376294 6.984008-35.642521 4.816557-49.851364-6.020697l-114.393226-85.012229a52.548636 52.548636 0 0 1-15.894638-65.746002l0.963311-1.926623c11.318909-21.674506 38.0508-32.270931 60.929445-25.286924l-53.222954-125.471307c-10.837253-25.768579 1.204139-55.631232 26.972719-66.709313 12.523048-5.298213 26.491063-5.53904 39.014111-0.240828 12.763876 5.298213 22.39699 14.931326 27.695202 27.695202l31.548448 76.342427 99.702728-34.438382c21.674506-6.74318 44.071496 3.853246 52.741298 24.323613l64.782691 155.093132c10.355597 25.768579-1.685795 55.631232-27.213547 66.468486zM370.634055 575.578551l-0.722484 1.685795c-5.53904 10.596425-2.649106 23.601129 6.984008 30.585137l114.152398 85.012229c6.261524 4.575729 14.208843 5.53904 21.433679 2.649106l143.774224-60.929445c11.078081-4.575729 16.135466-17.580433 11.559736-28.658513l-64.541862-154.852305a14.329257 14.329257 0 0 0-17.339605-8.188147l-99.221073 34.197554c-14.208843 5.057385-30.103481-2.167451-35.883349-16.135465l-31.548448-76.342427a21.168768 21.168768 0 0 0-12.041392-12.041393 22.6619 22.6619 0 0 0-16.857949 0c-11.318909 4.816557-16.617121 17.821261-11.800565 28.899342l87.902164 207.352775-65.023518-40.940734c-10.11477-6.502352-24.805268-2.889934-30.825964 7.706491z m0 0" p-id="6025" fill="#1f2a37"></path><path d="M809.663217 203.740357H214.336783a98.980245 98.980245 0 0 0-98.980245 98.980245v450.829727A98.980245 98.980245 0 0 0 214.336783 852.530574h595.326434a98.980245 98.980245 0 0 0 98.980245-98.980245V302.479774c0-54.427093-44.312324-98.739417-98.980245-98.739417z m50.814676 540.176858c0 35.642521-28.899341 64.78269-64.782691 64.782691H228.304798a64.78269 64.78269 0 0 1-64.782691-64.782691V312.112888c0-35.642521 28.899341-64.78269 64.782691-64.78269h567.390404c35.642521 0 64.78269 28.899341 64.782691 64.78269v431.804327z" p-id="6026" fill="#1f2a37"></path></svg>